<svg width="558" height="321" viewBox="0 0 558 321" fill="none" xmlns="http://www.w3.org/2000/svg">
<path d="M162.524 140.892C161.318 135.645 158.456 131.965 153.732 129.954C150.976 128.811 148.022 128.241 145.045 128.279C142.189 128.212 139.356 128.811 136.765 130.031C134.173 131.251 131.892 133.059 130.097 135.315C126.142 139.997 124.273 146.919 124.273 156.296C124.273 165.674 126.389 172.367 130.619 176.275C134.484 180.063 139.645 182.182 145.017 182.188C150.298 182.188 154.691 180.628 157.99 177.614C161.433 174.439 163.655 170.127 164.259 165.445H146.78V152.503H178.248V193.57H167.805L166.261 183.978C163.187 187.557 160.543 190.113 158.019 191.673C153.845 194.243 148.782 195.582 142.627 195.582C132.622 195.582 124.492 192.124 118.005 185.087C111.3 178.058 108 168.344 108 156.075C108 143.683 111.406 133.755 118.111 126.274C124.816 118.794 133.721 115 144.827 115C154.388 115 162.089 117.455 167.932 122.366C170.719 124.632 173.036 127.435 174.749 130.615C176.463 133.795 177.539 137.287 177.916 140.892H162.524Z" fill="black"/>
<path d="M236.065 186.648C231.34 192.568 224.198 195.467 214.63 195.467C205.062 195.467 197.926 192.604 193.195 186.648C188.464 180.692 186.145 173.591 186.145 165.33C186.145 157.184 188.45 150.04 193.195 144.127C197.919 138.1 205.069 135.201 214.63 135.201C224.191 135.201 231.34 138.207 236.065 144.127C240.796 150.155 243.115 157.184 243.115 165.33C243.101 173.591 240.683 180.735 236.065 186.648ZM224.339 178.502C226.652 175.381 227.745 171.028 227.745 165.338C227.745 159.647 226.645 155.316 224.339 152.281C222.033 149.246 218.734 147.699 214.559 147.699C210.273 147.699 206.973 149.267 204.688 152.281C202.404 155.294 201.283 159.754 201.283 165.338C201.283 171.064 202.383 175.359 204.688 178.502C206.994 181.644 210.329 183.076 214.559 183.076C218.79 183.076 222.104 181.515 224.339 178.502Z" fill="black"/>
<path d="M298.288 186.648C293.557 192.568 286.415 195.467 276.854 195.467C267.293 195.467 260.143 192.604 255.419 186.648C250.695 180.692 248.368 173.591 248.368 165.33C248.368 157.184 250.674 150.04 255.419 144.127C260.143 138.1 267.286 135.201 276.854 135.201C286.422 135.201 293.557 138.207 298.288 144.127C303.012 150.155 305.339 157.184 305.339 165.33C305.325 173.591 303.012 180.735 298.288 186.648ZM286.633 178.502C288.939 175.381 290.039 171.028 290.039 165.338C290.039 159.647 288.939 155.316 286.633 152.281C284.327 149.246 281.028 147.699 276.847 147.699C272.56 147.699 269.267 149.267 266.975 152.281C264.684 155.294 263.57 159.754 263.57 165.338C263.57 171.064 264.67 175.359 266.975 178.502C269.281 181.644 272.581 183.076 276.847 183.076C281.028 183.076 284.32 181.515 286.633 178.502Z" fill="black"/>
<path d="M343.682 137.907C346.288 139.418 348.482 141.566 350.063 144.156V117.148H364.905V193.599H350.718V185.76C348.953 188.761 346.503 191.287 343.576 193.126C340.932 194.687 337.639 195.36 333.705 195.36C327.218 195.36 321.721 192.68 317.213 187.321C312.7 181.966 310.507 175.152 310.507 166.676C310.507 156.96 312.705 149.37 317.1 143.905C321.5 138.329 327.324 135.537 334.727 135.537C337.866 135.507 340.957 136.325 343.682 137.907V137.907ZM347.207 178.194C349.407 175.073 350.394 171.036 350.394 166.139C350.394 159.224 348.631 154.314 345.226 151.3C343.17 149.528 340.554 148.567 337.858 148.594C333.571 148.594 330.496 150.269 328.515 153.505C326.534 156.74 325.547 160.871 325.547 165.674C325.547 170.921 326.541 175.051 328.628 178.172C330.607 181.293 333.683 182.856 337.858 182.861C341.926 182.861 345.113 181.293 347.207 178.172V178.194Z" fill="black"/>
<path d="M383.589 159.418V194.243L376.44 194.128V117.57H406.011C414.364 117.57 420.74 119.133 425.14 122.259C429.54 125.384 431.739 130.517 431.739 137.656C431.739 142.459 430.745 146.361 428.919 149.153C427.093 151.944 423.821 154.371 419.534 156.411C421.568 157.063 423.392 158.257 424.816 159.869C426.062 161.392 427.029 163.131 427.671 165.001C428.327 166.898 444.593 200.492 445.037 201.609C445.592 202.802 446.335 203.895 447.237 204.844C447.773 205.295 448.366 205.671 449 205.961V206.627L441.082 206.741C439.554 205.248 438.389 203.415 437.676 201.387C436.795 198.924 419.979 165.116 419.097 163.884C418.207 162.684 417.037 161.727 415.692 161.1C414.285 160.391 412.754 159.972 411.186 159.869C409.51 159.643 407.821 159.53 406.131 159.532H383.568L383.589 159.418ZM405.792 153.168C408.275 153.173 410.749 152.873 413.16 152.274C415.296 151.792 417.314 150.882 419.097 149.596C420.752 148.362 422.106 146.758 423.053 144.908C424.068 142.753 424.552 140.38 424.463 137.993C424.526 135.554 423.995 133.137 422.919 130.956C421.981 129.154 420.574 127.648 418.851 126.604C417.062 125.5 415.087 124.743 413.027 124.37C410.781 123.924 408.497 123.701 406.208 123.705H383.589V153.168H405.792Z" fill="black"/>
<path d="M448.774 160.978C447.454 161.649 446.293 162.601 445.369 163.77C444.382 164.994 422.806 198.924 421.516 201.265C420.416 203.277 419.316 205.396 418.11 206.627L410.192 206.512V205.839C410.814 205.527 411.405 205.153 411.955 204.723C412.825 203.747 413.565 202.659 414.155 201.487C414.592 200.37 435.695 166.554 436.795 164.887C438.205 162.739 438.205 162.739 439.432 161.2C440.645 159.768 446.483 159.976 448.781 159.976L448.774 160.978Z" fill="black"/>
</svg>
